<?xml version="1.0" encoding="UTF-8"?>
<svg version="1.1" viewBox="0 0 1704 1040" width="426" height="260" xmlns="http://www.w3.org/2000/svg">
<path transform="translate(743,45)" d="m0 0 29 2 20 4 16 6 18 10 9 7 12 11 9 13 2 4 2 1 2-5 11-13 16-15 15-10 17-8 16-5 12-2h37l3 7 2 9 1 9v12l-2 19-5 19-9 25-17 41-5 15-10 37-5 24-2 12-1 13v24l3 18 7 27 17 62 3 10h2l15-29 7-11 3-2 18-1 1 3-8 14-9 19-7 21v9l4 2 5-1 8-7 11-17 14-26 8-12 5-5 3-1h16v3l-5 6-11 21-9 25-1 5 1 4 5 1 9-6 7-8 9-15 10-21-3-5-3-6 1-9 5-5 6-1 5 3 3 12 5 3 9 1 9-8h17l1 2-6 9-10 19-6 15-3 11v6l1 4 7-3 10-9 9-13 11-18 8-16h-14l-1-2 3-5h15l3-2 8-16 7-10 8-7 3-1h14l-2 4-7 8-11 20-1 3 18 1 2 1-1 4-3 2-20 1-10 26-5 18v11l2 2 6-1 8-6 9-12 9-15 8-16 6-10 4-3 19-1v3l-9 16-9 19-4 12-1 6v9l2 3 5-1 7-5 11-16 9-16 11-20 9-10 3-1h16v3l-5 6-11 21-6 15-3 12 1 7 4 1 9-6 10-13 8-14 8-16-1-4-5-6-1-7 4-6 5-4 6 1 4 3 2 11 5 3 9 1 7-7 3-1h17l-2 5-6 10-8 15-8 21-2 9 2 5 5-1 9-6 8-10 10-18 8-11 7-8 12-8 9-3h18l8 4 5 6 1 2v9l-4 7-5 5-8 5-12 3h-18l-4-1-3 11v12l4 8 5 3h9l10-4 11-8 8-8 9-13 8-13 4 1-5 13-8 13-9 11-9 9-14 7-3 1h-23l-8-4-6-7-3-7-1-9h-2l-2 6-5 6h-2l-2 4-8 7-7 4h-13l-5-5-1-2v-23l4-15 5-12 6-11-17 2-11 23-7 11-8 11-11 12-8 7-4 2h-14l-4-6-2-11 1-5-7 6-2 3h-2v2l-12 9-5 2h-15l-4-5-2-5v-12l1-4-5 5-7 9-9 8-7 4h-13l-5-5-1-5v-12l1-15-8 11-11 14-9 8-8 4h-12l-4-4-3-7v-14l5-20 7-16 4-7-16 1-8 16-7 13-13 19-7 8-11 9-4 2h-13l-4-4-2-4v-15h-3l-2 5-9 10-12 7-3 1-11 1 13 42 15 49 14 41 18 50 4 14 3 30 6 23 6 16 13 28 4 5 10 15 2 1-3-6-10-15-8-17-7-18-5-18-3-19v-11l2 1 4 11 8 15 13 16 7 8 20 20 12 9 24 16 15 9 26 14 23 11 26 10 29 11 38 12 23 6 10 2 2 2-20 3-28 8-29 11-36 17-22 10-30 10-23 5h-26l-13-1-4-4-15-22-10-14-22-33-8-13-15-29-11-23-9-24-5-16-4-21-1-11-1-27-1 3v37l6 33 7 26 8 24 12 26 8 17 11 22v3l-19 9-9 7-4 2-2 4-10 13-13 16-6 5-8 4-9 3h-10l-16-3-16-6-16-8-16-10-13-10-14-10-10-5-4-1h-15l-10 3-12 7-15 10-15 8-16 6-11 3h-16l-16-3-8-4-11-11-6-12-3-11-1-7v-47l-3-12-2-6-9 2-8 7-6 10-6 13-5 19-4 20-4 12-8 11-13 13-13 8-12 6-16 6-22 5-31 4h-29l-25-3-33-7-25-7-12-4v-4l24-24 5-6 6-5 6-7 6-5 6-7 8-7 25-25 8-7 9-8 11-9 14-12 13-11 14-11 17-14 39-26 17-12 19-14 10-8 14-11 12-11 8-7 20-20 9-11 8-10 12-17 12-20 10-21 8-21 4-13-2-1-1 7-8 20-9 16-11 16-14 18-11 12-16 16-8 7-22 18-13 11-2 1 2-4 15-23 16-47 15-44 12-39 9-29 6-19 5-20 2-6-7 6-7 8-10 8-4 2h-14l-4-4-2-4v-10l5-19 9-25 2-10h-9l-7 3-6 5-11 18-6 14-11 32h-21l1-6 3-10-11 11-8 5h-13l-5-5-2-9v-7l2-12-3 3-6 9-9 10-9 8-6 3h-15l-5-5-3-7v-14l4-16 8-16 10-13 11-8 10-4h15l6 2 4 2v2l4 2h3l6-7 3-1h16l-2 4-9 16-9 21-4 12v11l5 1 10-7 10-14 7-15 4-13 3-15 1-1 18 1 1 1v11l6-4 8-5 7-3 5-1h12l5 2 3 7-1 8-4 13-7 19-2 8v7l5 1 10-8 8-10 6-11 6-14 11-35 14-47 4-16 1-8 1-28v-17l-5-25-5-20-8-18-10-20-12-22-8-19-6-19-3-14-1-8v-18l1-15 4-11zm659 346-11 8-8 9-3 5 1 4 3 2h7l8-3 10-8 4-6 1-7-3-4zm-786 1-9 5-4 3v2h-2l-10 13-8 17-1 5v9l3 4 6-1 9-6 8-8 11-17 11-18 1-3-6-5z" fill="#DA176D"/>
<path transform="translate(743,45)" d="m0 0 29 2 20 4 16 6 18 10 9 7 12 11 9 13 2 4 2 1 2-5 11-13 16-15 15-10 17-8 16-5 12-2h37l3 7 2 9 1 9v12l-2 19-5 19-9 25-17 41-5 15-10 37-5 24-2 12-1 13v24l3 18 7 27 17 62 3 10h2l15-29 7-11 3-2 18-1 1 3-8 14-9 19-7 21v9l4 2 5-1 8-7 11-17 14-26 8-12 5-5 3-1h16v3l-5 6-11 21-9 25-1 5 1 4 5 1 9-6 7-8 9-15 10-21-3-5-3-6 1-9 5-5 6-1 5 3 3 12 5 3 9 1 9-8h17l1 2-6 9-10 19-6 15-3 11v6l1 4 7-3 10-9 9-13 11-18 8-16h-14l-1-2 3-5h15l3-2 8-16 7-10 8-7 3-1h14l-2 4-7 8-11 20-1 3 18 1 2 1-1 4-3 2-20 1-10 26-5 18v11l2 2 6-1 8-6 9-12 9-15 8-16 6-10 4-3 19-1v3l-9 16-9 19-4 12-1 6v9l2 3 5-1 7-5 11-16 9-16 11-20 9-10 3-1h16v3l-5 6-11 21-6 15-3 12 1 7 4 1 9-6 10-13 8-14 8-16-1-4-5-6-1-7 4-6 5-4 6 1 4 3 2 11 5 3 9 1 7-7 3-1h17l-2 5-6 10-8 15-8 21-2 9 2 5 5-1 9-6 8-10 10-18 8-11 7-8 12-8 9-3h18l8 4 5 6 1 2v9l-4 7-5 5-8 5-12 3h-18l-4-1-3 11v12l4 8 5 3h9l10-4 11-8 8-8 9-13 8-13 4 1-5 13-8 13-9 11-9 9-14 7-3 1h-23l-8-4-6-7-3-7-1-9h-2l-2 6-5 6h-2l-2 4-8 7-7 4h-13l-5-5-1-2v-23l4-15 5-12 6-11-17 2-11 23-7 11-8 11-11 12-8 7-4 2h-14l-4-6-2-11 1-5-7 6-2 3h-2v2l-12 9-5 2h-15l-4-5-2-5v-12l1-4-5 5-7 9-9 8-7 4h-13l-5-5-1-5v-12l1-15-8 11-11 14-9 8-8 4h-12l-4-4-3-7v-14l5-20 7-16 4-7-16 1-8 16-7 13-13 19-7 8-11 9-4 2h-13l-4-4-2-4v-15h-3l-2 5-9 10-12 7-3 1h-13l-5-11-1-13-1-2-4-1-20-1-5 5-7 9-7 7-8 5-10 3h-10l-13-4-5-7-3-10-5-1-8 7-3 1v2l-11 8-11 4h-15l-12-4-5-4-4-7-2-9-5 1-7 9h-2l-1 3-10 7-6 3h-8l-6-4-2-3h-4l2-11 2-6-7 6-7 8-10 8-4 2h-14l-4-4-2-4v-10l5-19 9-25 2-10h-9l-7 3-6 5-11 18-6 14-11 32h-21l1-6 3-10-11 11-8 5h-13l-5-5-2-9v-7l2-12-3 3-6 9-9 10-9 8-6 3h-15l-5-5-3-7v-14l4-16 8-16 10-13 11-8 10-4h15l6 2 4 2v2l4 2h3l6-7 3-1h16l-2 4-9 16-9 21-4 12v11l5 1 10-7 10-14 7-15 4-13 3-15 1-1 18 1 1 1v11l6-4 8-5 7-3 5-1h12l5 2 3 7-1 8-4 13-7 19-2 8v7l5 1 10-8 8-10 6-11 6-14 11-35 14-47 4-16 1-8 1-28v-17l-5-25-5-20-8-18-10-20-12-22-8-19-6-19-3-14-1-8v-18l1-15 4-11zm659 346-11 8-8 9-3 5 1 4 3 2h7l8-3 10-8 4-6 1-7-3-4zm-786 1-9 5-4 3v2h-2l-10 13-8 17-1 5v9l3 4 6-1 9-6 8-8 11-17 11-18 1-3-6-5z" fill="#DA176D"/>
<path transform="translate(1185,348)" d="m0 0h14l-2 4-7 8-11 20-1 3 18 1 2 1-1 4-3 2-20 1-10 26-5 18v11l2 2 6-1 8-6 9-12 9-15 8-16 6-10 4-3 19-1v3l-9 16-9 19-4 12-1 6v9l2 3 5-1 7-5 11-16 9-16 11-20 9-10 3-1h16v3l-5 6-11 21-6 15-3 12 1 7 4 1 9-6 10-13 8-14 8-16-1-4-5-6-1-7 4-6 5-4 6 1 4 3 2 11 5 3 9 1 7-7 3-1h17l-2 5-6 10-8 15-8 21-2 9 2 5 5-1 9-6 8-10 10-18 8-11 7-8 12-8 9-3h18l8 4 5 6 1 2v9l-4 7-5 5-8 5-12 3h-18l-4-1-3 11v12l4 8 5 3h9l10-4 11-8 8-8 9-13 8-13 4 1-5 13-8 13-9 11-9 9-14 7-3 1h-23l-8-4-6-7-3-7-1-9h-2l-2 6-5 6h-2l-2 4-8 7-7 4h-13l-5-5-1-2v-23l4-15 5-12 6-11-17 2-11 23-7 11-8 11-11 12-8 7-4 2h-14l-4-6-2-11 1-5-7 6-2 3h-2v2l-12 9-5 2h-15l-4-5-2-5v-12l1-4-5 5-7 9-9 8-7 4h-13l-5-5-1-5v-12l1-15-8 11-11 14-9 8-8 4h-12l-4-4-3-7v-14l5-20 7-16 4-7-16 1-8 16-7 13-13 19-7 8-11 9-4 2h-13l-4-4-2-4v-15h-3l-2 5-9 10-12 7-3 1h-13l-5-11-1-13-1-2-4-1-20-1-5 5-7 9-7 7-8 5-10 3h-10l-13-4-5-7-3-10-5-1-8 7-3 1v2l-11 8-11 4h-15l-12-4-5-4-4-7-2-9-5 1-7 9h-2l-1 3-10 7-6 3h-8l-6-4-2-3h-4l2-11 2-6-7 6-7 8-10 8-4 2h-14l-4-4-2-4v-10l5-19 9-25 2-10h-9l-7 3-6 5-11 18-6 14-11 32h-21l1-6 3-10-11 11-8 5h-13l-5-5-2-9v-7l2-12-3 3-6 9-9 10-9 8-6 3h-15l-5-5-3-7v-14l4-16 8-16 10-13 11-8 10-4h15l6 2 4 2v2l4 2h3l6-7 3-1h16l-2 4-9 16-9 21-4 12v11l5 1 10-7 10-14 7-15 4-13 3-15 1-1 18 1 1 1v11l6-4 8-5 7-3 5-1h12l5 2 3 7-1 8-4 13-7 19-2 8v7l5 1 10-8 8-10 6-11 6-14 5-15 8-4 5-2h14l-1 6-10 18-5 11-6 18v9l2 2 6-1 10-10 12-17 10-15 9-10 11-8 8-3 6-1h11l8 3 5 5 2 6v10l-4 6-4 2h-10l-2-2v-5l6-5h2l1-9-2-2h-11l-8 5-6 5-7 11-4 9-4 13v13l4 6 5 3 7 1 12-4 9-7 8-8 11-15 4-7 3-7 9-11 8-7 11-7 11-2 18 1 6 5 5 12 1 4v9l-4 16 20 1-1-3 3-3 14-27 7-11 3-2 18-1 1 3-8 14-9 19-7 21v9l4 2 5-1 8-7 11-17 14-26 8-12 5-5 3-1h16v3l-5 6-11 21-9 25-1 5 1 4 5 1 9-6 7-8 9-15 10-21-3-5-3-6 1-9 5-5 6-1 5 3 3 12 5 3 9 1 9-8h17l1 2-6 9-10 19-6 15-3 11v6l1 4 7-3 10-9 9-13 11-18 8-16h-14l-1-2 3-5h15l3-2 8-16 7-10 8-7zm217 43-11 8-8 9-3 5 1 4 3 2h7l8-3 10-8 4-6 1-7-3-4zm-786 1-9 5-4 3v2h-2l-10 13-8 17-1 5v9l3 4 6-1 9-6 8-8 11-17 11-18 1-3-6-5z" fill="#6F6B6A"/>
<path transform="translate(843,265)" d="m0 0h46l27 2 20 2v42l3 18 7 27 17 62 3 10 1 4h-18l-2-1 1-9 2-7v-9l-4-12-4-6-3-2-18-1-11 2-11 7-10 9-8 11-3 7-7 11-9 11-9 9-8 5-10 3-7-1-8-6-2-4v-13l6-19 7-11 5-6 8-6 4-2h11l3 3v6l-5 5-4 3v5l1 1h10l5-3 2-4v-10l-3-7-5-4-6-2h-11l-9 2-8 4-10 8-7 8-7 11-10 14-7 9-8 8-6 1-3-3v-9l7-21 10-19 5-9 1-4-14 1-5 2-5 3h-2l1-7 14-46 7-25 2-13 1-28 2-3z" fill="#DA176D"/>
<path transform="translate(603,384)" d="m0 0h15l6 2 4 2v2l4 2h3l6-7 3-1h16l-2 4-9 16-9 21-4 12v11l5 1 10-7 10-14 7-15 4-13 3-15 1-1 18 1 1 1v11l6-4 8-5 7-3 5-1h12l5 2 3 7-1 8-4 13-7 19-2 8v7l5 1 10-8 8-10 6-11 6-14 5-15 8-4 5-2h14l-1 6-10 18-5 11-6 18v9l2 2 6-1 10-10 12-17 10-15 9-10 11-8 8-3 6-1h11l8 3 5 5 2 6v10l-4 6-4 2h-10l-2-2v-5l6-5h2l1-9-2-2h-11l-8 5-6 5-7 11-4 9-4 13v13l4 6 5 3 7 1 12-4 9-7 8-8 11-15 4-7 3-7 9-11 8-7 11-7 11-2 18 1 6 5 5 12 1 4v9l-4 16 20 1-1-3 3-1 3 6-1 2 1 7v17l-2-1-1-3-1-13-1-2-4-1-20-1-5 5-7 9-7 7-8 5-10 3h-10l-13-4-5-7-3-10-5-1-8 7-3 1v2l-11 8-11 4h-15l-12-4-5-4-4-7-2-9-5 1-7 9h-2l-1 3-10 7-6 3h-8l-6-4-2-3h-4l2-11 2-6-7 6-7 8-10 8-4 2h-14l-4-4-2-4v-10l5-19 9-25 2-10h-9l-7 3-6 5-11 18-6 14-11 32h-21l1-6 3-10-11 11-8 5h-13l-5-5-2-9v-7l2-12-3 3-6 9-9 10-9 8-6 3h-15l-5-5-3-7v-14l4-16 8-16 10-13 11-8zm13 8-9 5-4 3v2h-2l-10 13-8 17-1 5v9l3 4 6-1 9-6 8-8 11-17 11-18 1-3-6-5z" fill="#836E6F"/>
<path transform="translate(603,384)" d="m0 0h15l6 2 4 2v2l4 2h3l6-7 3-1h16l-2 4-9 16-9 21-4 12v11l5 1 10-7 10-14 7-15 4-13 3-15 1-1 18 1 1 1v11l6-4 8-5 7-3 5-1h12l5 2 3 7-1 8-4 13-7 19-2 8v7l5 1 10-8 8-10 6-11 6-12 6 5 2 6-3 14-5 10-3 3h-2l-1 2-4-1v-4l-7 6-7 8-10 8-4 2h-14l-4-4-2-4v-10l5-19 9-25 2-10h-9l-7 3-6 5-11 18-6 14-11 32h-21l1-6 3-10-11 11-8 5h-13l-5-5-2-9v-7l2-12-3 3-6 9-9 10-9 8-6 3h-15l-5-5-3-7v-14l4-16 8-16 10-13 11-8zm13 8-9 5-4 3v2h-2l-10 13-8 17-1 5v9l3 4 6-1 9-6 8-8 11-17 11-18 1-3-6-5z" fill="#6E6B6A"/>
<path transform="translate(843,265)" d="m0 0h46l27 2 20 2v18l-1 24-11-2-24-3-16-1h-42l-30 3-13 2h-7l1-38 2-3z" fill="#231C20"/>
<path transform="translate(463,324)" d="m0 0h60l-2 4-8 10-9 15-8 14-8 16-11 23-10 25-3 11v8l2 5 5 4h32l23-5 10-4 8-6 7-8 3 1-2 9-6 10-7 7-11 4h-87l-3-4-1-3v-9l5-19 8-21 11-24 16-31 14-24-19 3-14 4-12 5-4 3h-2l-2 4-4 4h-2v-6l5-10 6-7 8-5z" fill="#6F6B6B"/>
<path transform="translate(785,383)" d="m0 0h11l2 8-4 9-3 11 4-1 5-4 1-2h2l1-3 6-4 3-3 4-1v-2l15-7 8-1h20l6 3 5 4 3 8 1 4v10l5-5 7-8 5-5 11-7 7-3 7-1h19l6 2 4 4 3 5 4 16v8l-2 9 6-1 5-6 2 2 3 10h-18l-2-1 1-9 2-7v-9l-4-12-4-6-3-2-18-1-11 2-11 7-10 9-8 11-3 7-7 11-9 11-9 9-8 5-10 3-7-1-8-6-2-4v-13l6-19 7-11 5-6 8-6 4-2h11l3 3v6l-5 5-4 3v5l1 1h10l5-3 2-4v-10l-3-7-5-4-6-2h-11l-9 2-8 4-10 8-7 8-7 11-10 14-7 9-8 8-6 1-3-3v-9l7-21 10-19 5-9 1-4-14 1-5 2-5 3h-2l1-5 6-2z" fill="#CB2074"/>
<path transform="translate(943,438)" d="m0 0 20 1 5 2 1 2 1 13 4 8v3l2 1 2 6v4h-2l-5-12-4-2-3-9-3-8-13-1-4 4h-3v3l-3 1-2 4-6 5-1 2h-2v2h-2v2l-7 3-8 2-13 1-8 1-7 2h-3v2l-5 1v-2l-6-2-5-5-2-3h-5l-8 3-14 3h-20l-9-1-8-5v-2h-2v-2h-2l-1-2-5 1-10 5-7 3-5 1-13-2-6-5 2-6 4-1 4 5 4 2h8l11-6 5-4 9-11 3-2 4 1 3 11 5 7 7 3 7 2h15l12-5 8-6h2v-2l8-7 3-2 5 1 3 8 4 8 10 4 4 1h10l12-4 9-7 9-10 5-7z" fill="#CC2075"/>
<path transform="translate(924,394)" d="m0 0h10l4 2 1 2v6l-8 4-2 3v10l3 5 1 1v7l-6 10-11 12-7 4h-6l-6-4-3-8 1-9 3-10 8-17 9-11 7-6z" fill="#CC2075"/>
<path transform="translate(785,383)" d="m0 0h11l2 8-4 9-3 11 4-1 5-4 1-2h2l1-3 6-4 3-3 4-1v-2l15-7 8-1h20l1 2h-15l-9 2-8 4-10 8-7 8-7 11-10 14-7 9-8 8-6 1-3-3v-9l7-21 10-19 5-9 1-4-14 1-5 2-5 3h-2l1-5 6-2z" fill="#CC1F74"/>
<path transform="translate(836,412)" d="m0 0h3l2 5 1 3 6-1 16 2 5 1-2 9-7 9-6 7-9 6-7 3h-11l-5-7 1-11 4-10 1-5h2l1-6 3-3h2z" fill="#DA176D"/>
<path transform="translate(921,405)" d="m0 0 3 1-1 5-2 4-1 10 6 11-1 5-5 7h-2l-1 3-9 7-7-1-3-5v-8l3-8 7-15 1-3 7-5 4-4z" fill="#DA176D"/>
<path transform="translate(938,254)" d="m0 0 2 2-3 18h-1v-5h-12l-19-2-16-1h-46l-33 3h-15l-1 2v-3l21-5 20-2 4-1 19-1h40l8 3 12 3 13-1 6-3z" fill="#CB2275"/>
<path transform="translate(842,304)" d="m0 0h42l24 2 24 3 4 2-1 4-2-3-5-1-1 3-2-1v-2l-13-1-9-2h-13l-13 1h-35l-4-1-17 1-5 2h-12l-13 1 1-4v2l27-4z" fill="#CB2074"/>
<path transform="translate(804,344)" d="m0 0h10l3 2v6l-1 2h-2v2l-10 5-4 3h-6l-1-1v-6l8-11z" fill="#836E6F"/>
<path transform="translate(803,342)" d="m0 0h10l6 3 1 2-1 9-10 7-9 5h-8l-3-4 1-7 8-12zm1 2-5 4-6 9v6l1 1h6l11-7 3-1v-2h2l1-2v-6l-3-2z" fill="#CC2075"/>
<path transform="translate(1034,840)" d="m0 0 3 1 12 24v3l-5 2h-3l-1-10-2-4h-2l-1-7 1-5h-2z" fill="#CE2175"/>
<path transform="translate(968,428)" d="m0 0 4 5-1 3 1 7v17l-2-1-1-3-1-13-1-2-5-2v-3-2h-3v-2h8l-1-3z" fill="#846F70"/>
<path transform="translate(903,306)" d="m0 0 13 1 16 2 4 2-1 4-2-3-5-1-1 3-2-1v-2l-13-1-9-2z" fill="#C82374"/>
<path transform="translate(941,397)" d="m0 0 5 1 3 5-1 5h-2l-1 2-3-4z" fill="#6C6968"/>
<path transform="translate(1026,824)" d="m0 0h3l7 15-4-1-6-10z" fill="#D54189"/>
<path transform="translate(438,446)" d="m0 0 1 2 2 1-1 5 2 10-3 1-2-5v-9z" fill="#927F80"/>
<path transform="translate(783,429)" d="m0 0h2v4l-3 7-3 2h-3l2-6h2l2-6z" fill="#DA176D"/>
<path transform="translate(775,384)" d="m0 0h8l-3 2-5 2-5 3h-2l1-5z" fill="#CD2578"/>
<path transform="translate(957,433)" d="m0 0 7 2-1 3h-7z" fill="#6C6968"/>
<path transform="translate(863,394)" d="m0 0 7 2-1 4h-4z" fill="#6C6968"/>
<path transform="translate(1334,853)" d="m0 0 4 1z" fill="#FEFEFE"/>
<path transform="translate(666,677)" d="m0 0" fill="#FEFEFE"/>
<path transform="translate(667,676)" d="m0 0" fill="#FEFEFE"/>
<path transform="translate(668,675)" d="m0 0" fill="#FEFEFE"/>
<path transform="translate(669,674)" d="m0 0" fill="#836E6F"/>
</svg>
