<?xml version="1.0" encoding="UTF-8"?>
<svg version="1.1" viewBox="0 0 1704 1040" width="426" height="260" xmlns="http://www.w3.org/2000/svg">
<path transform="translate(0)" d="m0 0h1704v1040h-1704z" fill="#FCFCFC"/>
<path transform="translate(950,45)" d="m0 0h36l3 7 3 15v19l-3 19-4 15-7 19-22 54-7 25-8 32-4 24-1 10v24l3 21 8 30 15 56 3 13 5-5 6-10 8-16 5-8 4-3 5-1h13l1 3-7 12-11 24-5 16v11l2 1h6l7-6 13-20 14-26 9-13 4-3h19l-2 4-9 15-8 17-5 14-2 7v6l1 1 7-1 8-6 10-15 8-15 5-11-1-4-3-4-1-3v-7l2-6 5-3h6l5 5 2 8 4 4 5 2 6-1 8-7h18l-3 7-12 22-7 17-2 7v11l7-1 9-8 10-14 12-21 5-9 1-4h-13l2-7 17-1 11-21 7-9 5-4 3-1h15l-12 18-8 15-1 3h10l10 1-2 4-4 2-17 1-6 12-7 21-3 14v7l3 2 6-1 7-5 11-15 14-27 7-12 4-2 6-1h13l-1 5-8 14-9 20-4 13-1 11 2 4 3 1 9-6 11-16 16-29 7-11 7-7h18l-2 5-12 22-8 19-2 8v10l7-1 7-5 10-14 8-15 7-16-6-7-1-2v-6l5-7 4-2 7 1 3 3 2 10 6 4 7 1 8-7 2-1h18l-2 5-12 22-7 15-4 14-1 8h7l6-4 8-8 16-27 11-13 11-8 13-4h15l7 3 5 5 3 5v8l-3 6-5 6-12 6-15 3-15-1-3 7-1 5v8l2 7 5 5 3 1h10l12-6 11-9 10-13 10-17 4-1-1 7-8 15-9 12-10 11-13 8-12 3h-14l-9-4-7-6-4-9-1-8-3 3-9 11-9 8-9 5h-9l-5-3-2-2-1-4v-21l4-17 8-18 1-4-2 1-13 1-2 6-10 19-12 18-12 14-11 8-4 2h-9l-4-2-4-8-2-12-14 14-10 6-4 2h-10l-4-2-4-6-2-8v-10l-10 13-9 8-9 5h-8l-6-3-2-3-1-5v-26l-9 13-9 11-10 9-8 4h-9l-5-3-4-8v-15l4-17 6-16 4-7v-2l-14 1-8 16-9 16-11 15-9 10-9 7-6 3h-9l-5-3-2-3-2-17-4 4-7 8-9 7-10 4h-9l18 58 9 30 12 35 13 36 10 29 2 7 3 28 7 27 6 16 11 24 7 11 7 10 4 4-4-8-8-11-12-25-8-24-3-13-2-16v-8h2l4 13 10 16 10 13 11 12 19 19 14 10 12 8 16 10 25 14 15 8 28 12 46 17 38 12 20 5 10 2 1 2-22 4-24 7-20 7-23 10-20 9-16 8-14 6-25 8-23 5h-24l-15-2-5-5-7-10-13-19-13-18-8-12-12-19-8-14-9-19-7-15-9-21-6-18-5-23-2-21-1-19-1-2v33l3 21 6 27 6 22 7 21 18 38 12 25v3l-9 4-15 8-5 4-9 11-10 13-12 14-9 5-11 4h-10l-18-4-20-8-12-6-16-11-16-12-11-7-8-4-12-2-11 2-12 5-15 10-15 9-19 8-15 4h-13l-13-2-11-4-12-11-5-9-3-8-3-15v-48l-5-14-4-2-6 3-7 6-8 13-5 12-5 21-5 23-4 8-8 10-9 9-13 9-14 7-19 7-30 6-19 2h-26l-22-2-30-6-21-5-26-8 1-4 22-24 44-44 8-7 10-10h2v-2l8-7 14-12 17-14 15-13 30-24 17-12 27-18 17-12 16-12 13-10 10-8 12-11 13-12 14-14 7-8 14-18 12-18 11-19 6-13 10-25 4-14h-2l-2 9-6 16-12 21-10 14-10 13-9 11-26 26-13 10-11 9-11 8v-3l7-10 7-14 8-22 14-43 12-36 22-71 4-14 1-12-9 11-12 10-6 3h-11l-5-3-3-7v-8l4-17 10-29 2-9-12 1-7 4-6 8-10 17-9 25-5 16-1 1h-21l1-7 2-9-7 8-9 7-5 2h-8l-5-3-3-7-1-23-6 10-10 12-11 8-6 3h-10l-6-3-4-7-1-4v-13l4-16 8-16 8-11 8-7 14-7h17l10 5 6 5 2-5 6-5h17l-2 5-12 22-8 21-2 9v8l8-2 5-4h2l2-4 7-10 8-16 4-13 3-16h19l2 5 1 7 11-7 7-4 4-1h16l5 5 1 2v7l-5 16-7 20-2 8v8l8-3 8-7 8-11 8-16 7-18 17-56 7-25 2-15 1-23 1-15-5-28-5-20-6-15-10-21-12-22-7-14-7-20-4-15-3-17v-18l2-17 3-7 1-1h23l20 3 17 5 16 8 12 7 13 11 9 10 7 12h2l6-9 9-10 12-11 14-10 16-8 17-6z" fill="#DB166F"/>
<path transform="translate(950,45)" d="m0 0h36l3 7 3 15v19l-3 19-4 15-7 19-22 54-7 25-8 32-4 24-1 10v24l3 21 8 30 15 56 3 13 5-5 6-10 8-16 5-8 4-3 5-1h13l1 3-7 12-11 24-5 16v11l2 1h6l7-6 13-20 14-26 9-13 4-3h19l-2 4-9 15-8 17-5 14-2 7v6l1 1 7-1 8-6 10-15 8-15 5-11-1-4-3-4-1-3v-7l2-6 5-3h6l5 5 2 8 4 4 5 2 6-1 8-7h18l-3 7-12 22-7 17-2 7v11l7-1 9-8 10-14 12-21 5-9 1-4h-13l2-7 17-1 11-21 7-9 5-4 3-1h15l-12 18-8 15-1 3h10l10 1-2 4-4 2-17 1-6 12-7 21-3 14v7l3 2 6-1 7-5 11-15 14-27 7-12 4-2 6-1h13l-1 5-8 14-9 20-4 13-1 11 2 4 3 1 9-6 11-16 16-29 7-11 7-7h18l-2 5-12 22-8 19-2 8v10l7-1 7-5 10-14 8-15 7-16-6-7-1-2v-6l5-7 4-2 7 1 3 3 2 10 6 4 7 1 8-7 2-1h18l-2 5-12 22-7 15-4 14-1 8h7l6-4 8-8 16-27 11-13 11-8 13-4h15l7 3 5 5 3 5v8l-3 6-5 6-12 6-15 3-15-1-3 7-1 5v8l2 7 5 5 3 1h10l12-6 11-9 10-13 10-17 4-1-1 7-8 15-9 12-10 11-13 8-12 3h-14l-9-4-7-6-4-9-1-8-3 3-9 11-9 8-9 5h-9l-5-3-2-2-1-4v-21l4-17 8-18 1-4-2 1-13 1-2 6-10 19-12 18-12 14-11 8-4 2h-9l-4-2-4-8-2-12-14 14-10 6-4 2h-10l-4-2-4-6-2-8v-10l-10 13-9 8-9 5h-8l-6-3-2-3-1-5v-26l-9 13-9 11-10 9-8 4h-9l-5-3-4-8v-15l4-17 6-16 4-7v-2l-14 1-8 16-9 16-11 15-9 10-9 7-6 3h-9l-5-3-2-3-2-17-4 4-7 8-9 7-10 4-10 1-5-8-2-6-1-14-25-2-9 12-5 6-11 8-8 3h-14l-8-2-5-3-6-8-1-10-4-1-12 13-12 8-9 3h-16l-9-2-8-5-4-7-1-12-7 4-7 8-2 3h-2l-1 3-5 2v2l-11 4-8-1-6-7-1-3v-13l-9 11-12 10-6 3h-11l-5-3-3-7v-8l4-17 10-29 2-9-12 1-7 4-6 8-10 17-9 25-5 16-1 1h-21l1-7 2-9-7 8-9 7-5 2h-8l-5-3-3-7-1-23-6 10-10 12-11 8-6 3h-10l-6-3-4-7-1-4v-13l4-16 8-16 8-11 8-7 14-7h17l10 5 6 5 2-5 6-5h17l-2 5-12 22-8 21-2 9v8l8-2 5-4h2l2-4 7-10 8-16 4-13 3-16h19l2 5 1 7 11-7 7-4 4-1h16l5 5 1 2v7l-5 16-7 20-2 8v8l8-3 8-7 8-11 8-16 7-18 17-56 7-25 2-15 1-23 1-15-5-28-5-20-6-15-10-21-12-22-7-14-7-20-4-15-3-17v-18l2-17 3-7 1-1h23l20 3 17 5 16 8 12 7 13 11 9 10 7 12h2l6-9 9-10 12-11 14-10 16-8 17-6z" fill="#DB166F"/>
<path transform="translate(1184,348)" d="m0 0h15l-12 18-8 15-1 3h10l10 1-2 4-4 2-17 1-6 12-7 21-3 14v7l3 2 6-1 7-5 11-15 14-27 7-12 4-2 6-1h13l-1 5-8 14-9 20-4 13-1 11 2 4 3 1 9-6 11-16 16-29 7-11 7-7h18l-2 5-12 22-8 19-2 8v10l7-1 7-5 10-14 8-15 7-16-6-7-1-2v-6l5-7 4-2 7 1 3 3 2 10 6 4 7 1 8-7 2-1h18l-2 5-12 22-7 15-4 14-1 8h7l6-4 8-8 16-27 11-13 11-8 13-4h15l7 3 5 5 3 5v8l-3 6-5 6-12 6-15 3-15-1-3 7-1 5v8l2 7 5 5 3 1h10l12-6 11-9 10-13 10-17 4-1-1 7-8 15-9 12-10 11-13 8-12 3h-14l-9-4-7-6-4-9-1-8-3 3-9 11-9 8-9 5h-9l-5-3-2-2-1-4v-21l4-17 8-18 1-4-2 1-13 1-2 6-10 19-12 18-12 14-11 8-4 2h-9l-4-2-4-8-2-12-14 14-10 6-4 2h-10l-4-2-4-6-2-8v-10l-10 13-9 8-9 5h-8l-6-3-2-3-1-5v-26l-9 13-9 11-10 9-8 4h-9l-5-3-4-8v-15l4-17 6-16 4-7v-2l-14 1-8 16-9 16-11 15-9 10-9 7-6 3h-9l-5-3-2-3-2-17-4 4-7 8-9 7-10 4-10 1-5-8-2-6-1-14-25-2-9 12-5 6-11 8-8 3h-14l-8-2-5-3-6-8-1-10-4-1-12 13-12 8-9 3h-16l-9-2-8-5-4-7-1-12-7 4-7 8-2 3h-2l-1 3-5 2v2l-11 4-8-1-6-7-1-3v-13l-9 11-12 10-6 3h-11l-5-3-3-7v-8l4-17 10-29 2-9-12 1-7 4-6 8-10 17-9 25-5 16-1 1h-21l1-7 2-9-7 8-9 7-5 2h-8l-5-3-3-7-1-23-6 10-10 12-11 8-6 3h-10l-6-3-4-7-1-4v-13l4-16 8-16 8-11 8-7 14-7h17l10 5 6 5 2-5 6-5h17l-2 5-12 22-8 21-2 9v8l8-2 5-4h2l2-4 7-10 8-16 4-13 3-16h19l2 5 1 7 11-7 7-4 4-1h16l5 5 1 2v7l-5 16-7 20-2 8v8l8-3 8-7 8-11 8-16 6-15 7-6 5-6 11-2 7 1-1 6-6 9-10 21-6 19-1 8 1 4 8-4 6-5 11-14 6-9 5-9 7-9 10-9 11-6 5-2 7-1h8l8 2 6 6 2 7v7l-3 7-5 3h-10l-3-3v-6l3-3 7-2v-6l-4-4-9 1-8 4-7 7-8 13-5 13-1 6v12l3 8 7 3h8l12-5 9-7 9-11 7-10 9-17 12-13 13-8 4-2 6-1h19l6 4 5 6 3 8 1 10-5 15v2l3 1h14l9-13 8-16 7-12 5-4 5-1h13l1 3-7 12-11 24-5 16v11l2 1h6l7-6 13-20 14-26 9-13 4-3h19l-2 4-9 15-8 17-5 14-2 7v6l1 1 7-1 8-6 10-15 8-15 5-11-1-4-3-4-1-3v-7l2-6 5-3h6l5 5 2 8 4 4 5 2 6-1 8-7h18l-3 7-12 22-7 17-2 7v11l7-1 9-8 10-14 12-21 5-9 1-4h-13l2-7 17-1 11-21 7-9 5-4z" fill="#7E7A7C"/>
<path transform="translate(830,266)" d="m0 0h75l29 4 2 1v37l3 21 8 30 15 56 4 14-2 3h-14l-4-2 3-10 2-7-1-10-4-10-7-6-2-1h-19l-8 2-12 7-10 9-7 10-7 14-10 13-7 8-10 7-10 4h-8l-7-3-3-5-1-4v-12l3-12 5-10 7-11 7-7 8-4 9-1 5 5v6l-2 2-7 2-1 1v8h12l5-3 2-6v-7l-3-8-6-5-6-1h-8l-10 2-8 4-11 8-7 8-7 10-6 11-11 13-5 5-6 5-5 1-2-4 1-8 7-21 11-23 4-5 2-6-14 1-5 2-5 6-5 3 3-12 14-46 7-25 2-15 1-23v-4h2v-2z" fill="#DB176F"/>
<path transform="translate(830,266)" d="m0 0h75l29 4 2 1v13l-1 25-13-1-41-4h-38l-20 2-25 4-6 1v-12l1-23v-4h2v-2z" fill="#1F1D1E"/>
<path transform="translate(463,324)" d="m0 0h61l-6 8-9 13-10 17-12 23-10 21-10 25-3 13 1 10 6 5 5 1 24-1 23-4 13-5 9-6 6-8h2l-1 9-3 7-4 6-8 6-10 3-14 1h-69l-5-3-2-6v-7l5-20 6-16 11-25 11-22 13-23 8-14-22 4-15 4-13 7-7 8-3-1 4-11 6-8 8-7 7-3z" fill="#7E7A7C"/>
<path transform="translate(1017,764)" d="m0 0 2 3h2l1-2 2 3v10h3l3 6v3h2l1 6 2 2-1 2 3 1v3l2 1v2l3 2 1 5-1 2 3 1 3 7 2 4h2v4l3 1v2l4 3v3l5 5-2 3 5-3-1 7h2l4 4v3l3 1v4h2l3 4v3l4 2-1 3 3 1 2 3v3l4 2v4h3l1 6 4 2 2 2 2 1 1-3 4 1 4 6 4 1 1 3 4-1 3 2 5-1v-3l6-1v2l2-1h8v-2h7l10-2v-2l7-2 1-2 10-1 4-1 1-3 5-2 8-2 1-2 8-1v-2h3v-2l5 1 1-2 2 1v-2h3l1-3 4-2 3-1 2 1v-2l6-1 1-2 10-4 6-1 2-3h3v-3h3l2-6-1-3-3-1 1-2-3-1 4-1 10 1 1 1 1-2h2v2h3l1 2 5 1v-6l16 4 26 6 1 2-22 4-24 7-20 7-23 10-20 9-16 8-14 6-25 8-23 5h-24l-15-2-5-5-7-10-13-19-13-18-8-12-12-19-8-14-9-19-7-15-5-11v-6z" fill="#F0157E"/>
<path transform="translate(649,873)" d="m0 0 2 1 1 6-2 2-1-1-1 2-3 1-4 5 3 2 1 4-12 12-13 9-14 7-19 7-30 6-19 2h-26l-22-2-30-6-21-5-26-8 1-4 11-12 5-3 1-2 8-3 3-2v4h-2l1 5-3 6 1 6 4 2 1 3 7-1 10 4 13 1 3 2h6v2l5-1 8 1v2l3-1 1 1 19 1 4 1h8l3-1 13-1h13l10-5 1 2 5-1v-2l6-2 11-4h2v-2l8-3h3l1-2 3-1 4-4 4-2h4l2-3 4-2 2-2 3-1 1-3 3-2 1-4h2l3-3 2-1-1-4 3-1 1 1z" fill="#F0157E"/>
<path transform="translate(741,46)" d="m0 0h23l9 1v3h-15v2l-3 1v2h-2l-1 4 3 1h-3l-2 4h-5l-2 1-1 12 1 4-1 2 3-1 1 6 1 3v6h2v6l3 5 1 9h-2v2l4-1 1 2v7h2v2h-2v2l4 1v3h2l2 4v7l4 1 1 3h-3l2 3v3h3l1 4 1 2-1 2 3-1v5l4 2 1 4v3 3h3l1 7 3-1-1 5 2 4 1 6 2-1-1 4-1 2 2 1 3 5-1 6 2 1-3 1-2-1-1 4-2-11-2-1-3-6-2-3-12-25-12-22-7-14-7-20-4-15-3-17v-18l2-17 3-7z" fill="#F0157D"/>
<path transform="translate(699,852)" d="m0 0 4 2 1-2 2 5 1 8 4 6 1 13h2l1 5 4 1 2 5 6 2v3l6 1h3l2 1 5 3v-2l6 1 6-4 8 1 8-4 7-2 1-2 6-1v-2h4v-2l6-1v-2l5-3 5-1 1 1 2-4 10-3 6-3 3-1 1 3-2 1 1 7-13 8-19 12-18 8-18 5h-13l-13-2-11-4-12-11-5-9-3-8-3-15z" fill="#F0157E"/>
<path transform="translate(927,394)" d="m0 0h8l5 4 1 6-9 3-3 2v10l5 11-1 6-7 11-8 8-9 5h-7l-6-3-1-2v-16l2-8 5-12 9-14 6-7 5-3z" fill="#DB166F"/>
<path transform="translate(855,868)" d="m0 0h2v2h6l4 2h3l9 5 5 5 10 6 10 9 3 1 5 6 7 2 2 2 6 2 2 2 5 1 7 3h3 7l2 3 8-2h1l9-3v2l7-6 5-3h2v-2l5-1v-3h4v-2l5-2 1 4-1 2h-2l-2 5v2h-2l-1 7-5 2-1 5-8 4-9 3h-10l-18-4-20-8-12-6-16-11-16-12-11-7-8-4-9-2 2-4 1-4z" fill="#F1157E"/>
<path transform="translate(619,391)" d="m0 0 6 1 6 5-8 14-11 18-12 14-9 6h-7l-2-3 1-12 5-13 9-13 7-8 12-8z" fill="#FDFDFD"/>
<path transform="translate(1048,678)" d="m0 0h2l4 13 10 16 10 13 11 12 19 19 14 10 12 8 11 7-2 4-5-3-5-1-4-4v-2h-2l-1 2-4-4-2 1-1-5h-7l-1-4h-3l-3-3-4-2-1-2-5-2v-2l-4-2-3-1v2l-5-1-6-5-1-2-3-1-2-6h-2v6l-2-1v-4h-2l-3-11-4-5-4-16-2-16z" fill="#F0157D"/>
<path transform="translate(735,592)" d="m0 0h4l1 3-3 1-2 5-3 6v2h-2v3h-2l-1 3-3 1-5-2-1 2v-4h-2v2l-3 1-3 5-3 3 2 5 5-1 2 2-2 3-1 4v3l-13 11-8 6-12 10-6 3 2-4 9-14 6-14 5-14h2l1-3 4-1 2 2 1-3 2-1-1-5 3-4h2v-9l3-3v2l9 1 6-2 1-3h3z" fill="#F0157E"/>
<path transform="translate(947,372)" d="m0 0 2 1 4 15 2 1 10 37 1 3-2 3h-14l-4-2 3-10 2-7-1-10-5-13-4-5 1-4 5-5z" fill="#F1157E"/>
<path transform="translate(1404,391)" d="m0 0h9l1 1-1 9-4 6-10 9-7 3h-8l-4-2 1-5 6-8 5-5 7-6z" fill="#FDFDFD"/>
<path transform="translate(791,321)" d="m0 0 4 4-1 5-3 8 5 2 5-1v5l-3 4h-2l-1 4-5 9h-6l-3 7-1 7 4 2 1 3-3 3-9 3h-2l1-11 2-3 2-4 4-12 5-17 3-7 3-1-1-5z" fill="#F1157E"/>
<path transform="translate(950,45)" d="m0 0h36l2 4v13l-4-2h-3-3l1 2h-7l-2-2v-3h-2l1-5-9-1h-6l-2 1 2-5-2-1-1 2-7-1v-1z" fill="#F1157E"/>
<path transform="translate(806,344)" d="m0 0h8l4 4-1 5-12 7-5 5h-6l-1-1v-6l6-9 4-4z" fill="#7F7B7D"/>
<path transform="translate(649,873)" d="m0 0 2 1 1 6-2 2-1-1-1 2-3 1-4 5 3 2 1 4-12 12-4 3h-3l1-3 4-2-4-2 1-4 4-2 1-6 4-3 1-4h2l3-3 2-1-1-4 3-1 1 1z" fill="#EF157D"/>
<path transform="translate(1021,809)" d="m0 0 3 4 20 41 5 11v3l-4-2 1-4h-2l-8-17v-3h-2l-10-24-3-6z" fill="#F2157F"/>
<path transform="translate(1011,739)" d="m0 0 5 3 1 5-2 4 4 2 1 6v3h-2l-3-6-2 5-2-3-3-9z" fill="#E11673"/>
<path transform="translate(823,68)" d="m0 0 5 2 6 5 5 2 4 6 5 6-1 2-8-7h-2l-3-3-7-3-2-4-2-1 1-3-2-1z" fill="#F1157E"/>
<path transform="translate(1436,412)" d="m0 0h3l-1 7-8 15-6 8h-2l2-5 3-5 1-2-1-3 8-14z" fill="#363436"/>
<path transform="translate(795,250)" d="m0 0 4 3 3 5 8 4-3 1v3l-3 2h-8z" fill="#F2157F"/>
<path transform="translate(486,840)" d="m0 0m-1 1m-1 1m-1 1m-1 1m-2 1 2 1-50 50-2 3h-2l2-4z" fill="#E51676"/>
<path transform="translate(1290,841)" d="m0 0 8 1 20 5 10 2 1 2-10 1-6-2v-2h-7l-7-3-9-3z" fill="#E01672"/>
<path transform="translate(1017,764)" d="m0 0 2 3h2l1-2 2 3v15l1 3-3-1-6-14v-6z" fill="#EC157B"/>
<path transform="translate(826,448)" d="m0 0 3 2 7 2 1 5-2 1-10-1-3-3v-3z" fill="#F1157E"/>
<path transform="translate(1031,856)" d="m0 0 3 1-1 4-3 5-4 2 2 5-4 1-3-1v2l2 1-1 2-4-1-4 1 1-3h3l2-4 4-1-1-4h3l4-5z" fill="#F1157E"/>
<path transform="translate(510,817)" d="m0 0 5 2-1 3h-2l-1 2-11 9-2-1v-3l2-1v-2l8-7z" fill="#EE157C"/>
<path transform="translate(810,884)" d="m0 0h5l2 4-14 9-3-1 2-3 3-1-1-6 4 1 1-2z" fill="#E01672"/>
<path transform="translate(950,45)" d="m0 0h36v1l-25 1v2h5l-1 2h-11l-2 1 2-5-2-1-1 2-7-1v-1z" fill="#F2157F"/>
<path transform="translate(952,408)" d="m0 0h1v8l-4 14h9l5-4h2l1 3-2 3h-14l-4-2 3-10z" fill="#DF1672"/>
<path transform="translate(786,333)" d="m0 0 1 3-4 14-2 6-4 13-2 6h-1l1-9 9-31z" fill="#E01672"/>
<path transform="translate(649,880)" d="m0 0h4l-2 7-6 7-2-3-3-2 4-5 1-2 3 1z" fill="#DF1672"/>
<path transform="translate(897,445)" d="m0 0 4 1 6 7-4 1v2l2 1h-6l-4-2 1-4 1-1z" fill="#F1157E"/>
<path transform="translate(772,378)" d="m0 0 1 2-2 6 8-2 2 2-5 2-5 6-5 3 3-12z" fill="#E11673"/>
<path transform="translate(779,437)" d="m0 0 5 2v2l-4 4h-2v3l-5 1-1-1v-5l3-1v-2z" fill="#F2157F"/>
<path transform="translate(959,46)" d="m0 0h27l-1 3h-3l-10 1-11-1v-2z" fill="#DB176F"/>
<path transform="translate(740,47)" d="m0 0h3v2l-2 1-1 4 4-4h4l-1 6h-8l-1 9h-1v-11z" fill="#DF1671"/>
<path transform="translate(635,894)" d="m0 0 2 1-1 2h-2l-2 5 3 1-2 4-4 3h-3l1-3 4-2-4-2 1-4 4-2v-2z" fill="#DC1670"/>
<path transform="translate(882,77)" d="m0 0m-1 1m-1 1m-2 1 2 1-3 3 1 2-2 4-5 2-1 1-6 4 2-4 9-10z" fill="#E81578"/>
<path transform="translate(1280,846)" d="m0 0 1 4-4 5-5 3-2-1 3-6h2v-2z" fill="#DB176F"/>
<path transform="translate(1011,739)" d="m0 0 5 3 1 5-2 4h-2l-4-5z" fill="#F1157E"/>
<path transform="translate(722,585)" d="m0 0h1l-1 8h-2l1 3-4 1-1-3 2-8z" fill="#EF157D"/>
<path transform="translate(1009,723)" d="m0 0 3 1 1 8-6 2-1-7 3-1z" fill="#F2157F"/>
<path transform="translate(979,62)" d="m0 0 4 2v4h2v6l-4 2-1-5 1-3-3-5z" fill="#F1157E"/>
<path transform="translate(649,873)" d="m0 0 2 1 1 6-2 2-1-1-1 2-4-1 1-2-1-4 3-1 1 1z" fill="#F2157F"/>
<path transform="translate(1014,755)" d="m0 0 2 1 3 7-2 3v3h-2l-2-5z" fill="#DF1671"/>
<path transform="translate(794,223)" d="m0 0 1 2h2l1 7h-2l-1 2-2-1-1 2-1-4z" fill="#F2157F"/>
<path transform="translate(921,442)" d="m0 0h2l1 3-5 5-4 1v-3h2l2-4z" fill="#F2157F"/>
<path transform="translate(963,426)" d="m0 0h2l1 3-2 3h-14l1-2h7z" fill="#DC1670"/>
<path transform="translate(1055,716)" d="m0 0 2 4 2 3 2 6v7l-2-2-4-13z" fill="#E31674"/>
<path transform="translate(840,80)" d="m0 0 4 2 7 8 2 4-2 2-3-4-4-7z" fill="#E31674"/>
<path transform="translate(1015,751)" d="m0 0 4 2 1 6v3h-2l-3-6-2-1z" fill="#F2157F"/>
<path transform="translate(750,139)" d="m0 0 2 3 8 16 1 3h-2l-8-16z" fill="#E21674"/>
<path transform="translate(496,830)" d="m0 0v3l-4 5v2h-2v3l-4 1 2-6z" fill="#EB157A"/>
<path transform="translate(821,441)" d="m0 0 1 2 5 1-2 4h-2v2h-2z" fill="#F1157E"/>
<path transform="translate(771,443)" d="m0 0h1l1 5 5 1-1 2-5 1-2-4z" fill="#E21674"/>
<path transform="translate(1429,431)" d="m0 0 1 3-6 8h-2l2-5z" fill="#3E3C3D"/>
</svg>
